<svg xmlns="http://www.w3.org/2000/svg" version="1.1" xmlns:xlink="http://www.w3.org/1999/xlink" xmlns:svgjs="http://svgjs.dev/svgjs" width="1500" height="1500" viewBox="0 0 1500 1500"><rect width="1500" height="1500" fill="#ffffff"></rect><g transform="matrix(0.6666666666666666,0,0,0.6666666666666666,250,187.66666666666674)"><svg viewBox="0 0 320 360" data-background-color="#fafafa" preserveAspectRatio="xMidYMid meet" height="1687" width="1500" xmlns="http://www.w3.org/2000/svg" xmlns:xlink="http://www.w3.org/1999/xlink"><g id="tight-bounds" transform="matrix(1,0,0,1,0,0)"><svg viewBox="0 0 320 360" height="360" width="320"><g><svg></svg></g><g><svg viewBox="0 0 320 360" height="360" width="320"><g><path d="M219.58 41.008c0.707 0 6.365 2.829 9.547 3.89-1.061 0.354-3.536-0.707-6.365-1.768 0.707 0 2.122 0.354 3.536 1.06-0.707-0.707-6.011-2.475-6.718-3.182M166.895 30.047c1.061-0.354 13.436 1.414 19.094 1.768 0.354-0.354-0.707-0.354-2.122-0.707 1.768-0.354 5.304 0.707 7.779 1.06-7.425 0.354-15.558-1.768-22.629-1.06-2.475 0-0.707-0.707-2.122-1.061M156.641 30.047c6.365 0 11.315 0 2.121 0.707-1.061-0.354-2.475-0.354-2.121-0.707M256.707 59.395c0.707 0 3.536 3.182 4.95 4.243-0.354 0.354-3.182-2.475-4.596-3.536 0.354 0.354 0 0-0.354-0.707M249.635 54.798c-2.829-2.475-3.889-2.475-4.243-3.889 2.475 1.414 4.243 2.829 4.243 3.889M204.022 32.522c0.354-0.354 1.061 0.354 2.829 0.707-2.122-0.354-1.768 0-1.061 0.707-2.475-0.354-3.182-0.707-2.475-1.414 1.414 0.707 1.768 0.354 0.707 0M103.602 36.765c0-0.354 1.414-1.061 2.475-1.414-1.061 0.707-0.707 1.061 1.061 0.353 0 0.354-2.122 1.061-3.536 1.768 0.707-0.354 1.414-1.414 0-0.707M211.094 28.986c-1.061 0.354-4.95-1.768-8.84-2.475-2.122-0.707 8.486 1.768 8.84 2.475M2.475 203.66c2.122 8.84 0.707 8.486 0 0M2.829 150.621c0.354-1.414 0.707-5.304 1.06-4.95-1.061 8.486-2.829 12.376-3.182 18.74 1.061-5.657-0.354 3.182-0.707 5.304 0.354 2.829 0.354-1.768 1.061-1.06 0.707 1.061-1.414 15.912-0.707 7.779-0.707 7.425 0 15.558 1.414 17.679-1.768 11.315 7.072 36.773 8.84 42.077 0.354 0.354 0-1.768 0.707-0.353 0.707 4.597 3.889 7.779 4.95 12.729 1.061 1.414 5.304 9.193 6.011 10.962 1.414 2.829 2.122 2.475 3.536 5.303 4.243 8.133 10.961 15.912 17.326 23.337 20.508 24.044 51.978 43.845 86.984 50.918 35.006 7.425 71.779 2.122 100.419-11.669 1.768-1.061 1.414-1.414 3.536-2.122 9.901-3.182 21.923-13.436 28.641-17.326 3.182-3.536 11.669-9.547 12.73-13.082 6.011-4.95 12.022-13.083 15.204-18.387 1.768-2.829 3.182-2.829 3.889-4.597-0.354 0 5.657-7.425 7.426-11.668-0.707 0-1.768 2.122-1.768 0 12.729-24.398 19.801-57.282 15.911-79.912 0.707 27.934-6.365 59.05-19.801 78.851-6.011 12.729-18.387 26.519-29.701 36.42-1.768 1.768-3.536 3.889-5.658 5.304-6.718 5.657-14.144 10.254-21.922 14.497-18.387 10.254-38.895 19.094-62.94 19.447 41.37-3.536 78.497-24.398 99.006-49.856-15.558 15.204-22.276 21.215-39.602 30.055-1.414 2.475-13.083 7.425-20.862 9.547 4.597-2.122 14.144-5.657 17.326-8.486-25.812 12.376-54.453 19.448-81.326 15.558 10.254 0 24.751 0.354 38.541-2.121 2.122-0.707 3.182-1.414 5.658-1.768 26.873-6.011 52.685-19.094 71.072-37.481-10.608 9.547-26.519 20.862-36.774 24.398 9.547-5.304 26.873-15.558 32.53-23.337-11.315 11.315-32.53 22.63-45.966 27.58-2.122 0.354 1.414-1.414-2.122 0-4.243 1.061-2.475 1.061-3.536 1.768-16.265 4.597-35.006 8.486-50.563 7.072-2.829-0.354-3.889-1.061-6.365-1.061-2.829-0.354-5.304-0.354-8.486-0.354-12.376-1.414-25.812-6.365-35.713-10.607-5.304-2.475-10.608-4.243-15.912-7.426-4.243-2.475-7.779-5.304-11.314-8.132-13.436-9.901-24.751-19.801-35.36-33.945-19.094-26.519-28.994-59.757-27.58-92.641 1.414-32.884 14.497-65.061 35.359-88.752-1.061 1.061 1.414-2.475 3.536-4.596 0 0.707-0.354 1.768 2.122-0.707 2.122-2.475-0.707-0.707 0.353-2.122 21.923-24.044 60.111-43.492 99.36-44.199 1.414-1.061 3.889-2.475 6.718-1.768 0 0.354-1.768 0.354-1.768 0.354 3.889-0.354 7.425-0.354 9.193 0.353 0.354-0.354-1.414-0.707 0-0.707 2.475 0.707 3.182 0 4.597 0.707-1.061 0-2.122 0-2.829 0.354 8.84 0 14.497 2.122 23.337 2.829-4.597-1.061-5.657-1.061-9.193-2.122 3.889 0.707 5.657 1.414 7.425 1.061-0.707 0-0.354-1.061 0.354-0.707 7.072 1.768 7.779 2.475 15.204 4.95 0.707-0.707-3.182-1.061-4.243-2.122 7.072 2.475 13.436 4.243 17.68 7.072-1.414-1.061-5.657-2.475-8.84-3.889-0.354 0.354 1.061 0.707 1.414 1.414-3.536-1.768-8.486-3.536-13.436-4.243 4.243 1.061 7.072 2.475 8.84 3.182-3.889-0.707-8.84-3.182-14.498-4.243 9.193 2.829 26.519 9.193 37.127 14.851-3.889-2.475-8.486-4.243-10.961-5.657 2.122 0.354 4.597 1.768 4.597 1.06 2.475 1.061 5.657 3.536 7.425 3.89-3.182-2.122-9.547-5.304-11.668-6.365 26.519 12.022 50.21 32.177 65.414 57.989 1.414 2.475 3.536 8.133 5.304 8.84-0.354-1.768-1.768-2.829-3.182-5.657 0.707 0 0.707-1.061 0-2.122-1.414-1.768 0 1.414-1.415-0.354-6.365-11.669-14.144-21.923-26.165-33.237 6.718 6.365 1.768 1.768 0.353-0.354 9.193 8.133 19.801 21.923 24.398 28.995-0.707-1.061-1.061-1.768-0.707-1.768 8.486 14.497 13.79 27.58 19.094 46.32 0.354 0.354 0-1.414 0.707-0.353 3.536 14.851 4.597 27.227 4.243 38.541 2.829-19.094-3.536-48.796-14.851-72.133-1.414-2.829-1.414-0.707-2.829-3.889 0-1.061-1.061-3.182-1.768-4.597-14.144-23.337-31.47-39.956-51.978-53.038 1.414 0.707 4.243 2.829 4.244 2.475-38.188-25.105-82.387-28.641-118.807-20.862-2.475 1.061-3.536 2.122-6.365 3.536 5.304-1.768 8.486-2.122 13.437-3.183 1.061-1.061-4.597 0.354-2.122-0.707 0.354 0.354 4.95-0.707 6.011-0.353 0 0.354-1.414 0.707-1.768 1.06 11.669-2.475 23.691-2.829 33.945-2.121-6.011 0.354-16.972-0.707-20.508 1.061 3.536-0.354 8.486-0.707 11.668-0.354-4.243 0-12.022 0.354-15.558 0.707-0.354-0.354 5.657-1.061 1.768-1.06-1.768 0.354-4.597 0.354-5.657 1.414-30.409 2.829-60.111 18.74-80.973 37.481-4.243 3.536-9.193 7.425-12.375 11.314-7.779 8.84-12.729 17.68-18.387 25.459 3.536-7.425 11.315-18.74 20.508-28.287 9.193-9.547 19.094-17.68 24.398-21.923 0 1.414 8.486-5.304 11.669-7.425-2.122 1.768 1.414-0.707 2.121-0.354 11.315-6.718 20.508-9.193 30.763-13.083-2.475 0.707-4.597 1.414-4.951 1.061 2.475-0.707 3.889-1.414 3.536-1.768-9.901 2.829-25.459 9.547-37.834 16.972 22.276-15.204 50.564-24.398 78.497-24.751 27.934-0.707 55.16 6.365 76.729 17.68 14.497 6.365 28.287 18.033 39.249 29.348 3.182 2.829 0.707-0.707 5.304 4.243-1.414-0.707-2.475-1.414-0.707 0.707 2.829 3.182-0.707-2.475 3.889 3.182-0.354 0-1.768-1.768-1.768-1.061 12.376 10.961 21.923 30.762 27.58 43.846-1.414-5.304-4.95-12.729-7.779-18.033 8.486 15.558 11.315 24.751 14.851 38.541 1.414 1.061-0.707-4.95 0.707-2.121 0.354 2.122 0.707 8.84 2.122 9.9-1.061-6.718-2.829-14.851-4.243-16.265 1.061 0.707-1.768-8.133-3.536-10.254-0.707-5.657-5.657-15.558-9.901-22.984-15.204-29.702-42.431-54.099-72.839-67.536 0-0.707-1.768-1.414-2.476-2.121-30.055-12.729-66.122-16.265-100.773-8.133-35.006 8.486-67.889 28.641-91.227 57.636 1.061-3.536 9.901-10.254 10.255-13.083-10.254 10.961-21.215 25.459-28.641 41.016-7.779 15.558-12.022 31.47-13.79 43.138" fill="#000000" fill-rule="nonzero" stroke="none" stroke-width="1" stroke-linecap="butt" stroke-linejoin="miter" stroke-miterlimit="10" stroke-dasharray="" stroke-dashoffset="0" font-family="none" font-weight="none" font-size="none" text-anchor="none" style="mix-blend-mode: normal" data-fill-palette-color="tertiary"></path></g><g transform="matrix(1,0,0,1,48,169.79555555555555)"><svg viewBox="0 0 224 20.40888888888889" height="20.40888888888889" width="224"><g><svg viewBox="0 0 224 20.40888888888889" height="20.40888888888889" width="224"><g><svg viewBox="0 0 224 20.40888888888889" height="20.40888888888889" width="224"><g id="textblocktransform"><svg viewBox="0 0 224 20.40888888888889" height="20.40888888888889" width="224" id="textblock"><g><svg viewBox="0 0 224 20.40888888888889" height="20.40888888888889" width="224"><g transform="matrix(1,0,0,1,0,0)"><svg width="224" viewBox="2.5 -40.5 449.97 41" height="20.40888888888889" data-palette-color="#130912"><path d="M16.25 0.43L16.25 0.43Q14 0.43 12.11-0.26 10.23-0.95 8.69-2.21 7.15-3.48 6-5.23 4.85-6.98 4.06-9.11 3.28-11.25 2.89-13.69 2.5-16.13 2.5-18.75L2.5-18.75Q2.5-21.38 2.88-23.81 3.25-26.25 4.01-28.39 4.78-30.53 5.91-32.27 7.05-34.02 8.58-35.29 10.1-36.55 12.03-37.24 13.95-37.93 16.25-37.93L16.25-37.93Q18.5-37.93 20.39-37.24 22.28-36.55 23.81-35.29 25.35-34.02 26.5-32.27 27.65-30.53 28.44-28.39 29.23-26.25 29.61-23.81 30-21.38 30-18.75L30-18.75Q30-16.13 29.63-13.69 29.25-11.25 28.49-9.11 27.73-6.98 26.59-5.23 25.45-3.48 23.93-2.21 22.4-0.95 20.48-0.26 18.55 0.43 16.25 0.43ZM24.8-17.98L24.8-17.98Q24.8-19.73 24.69-21.55 24.58-23.38 24.24-25.11 23.9-26.85 23.3-28.39 22.7-29.93 21.74-31.06 20.78-32.2 19.39-32.88 18-33.55 16.1-33.55L16.1-33.55Q14.3-33.55 12.98-32.95 11.65-32.35 10.73-31.31 9.8-30.28 9.2-28.89 8.6-27.5 8.28-25.95 7.95-24.4 7.83-22.78 7.7-21.15 7.7-19.63L7.7-19.63Q7.7-17.85 7.81-16 7.93-14.15 8.26-12.41 8.6-10.68 9.2-9.14 9.8-7.6 10.78-6.45 11.75-5.3 13.13-4.63 14.5-3.95 16.4-3.95L16.4-3.95Q18.18-3.95 19.49-4.56 20.8-5.18 21.74-6.24 22.68-7.3 23.28-8.69 23.88-10.08 24.21-11.64 24.55-13.2 24.68-14.83 24.8-16.45 24.8-17.98ZM46.77-23.5L46.77-9.4Q46.77-7.75 46.96-6.64 47.15-5.53 47.51-4.84 47.87-4.15 48.41-3.86 48.95-3.58 49.65-3.58L49.65-3.58Q50.82-3.58 51.97-3.85 53.12-4.13 54.12-4.49 55.12-4.85 55.9-5.21 56.67-5.58 57.1-5.75L57.1-5.75 58.82-2.73Q58.6-2.53 57.73-2.01 56.87-1.5 55.56-0.95 54.25-0.4 52.6 0.01 50.95 0.43 49.15 0.43L49.15 0.43Q46.9 0.43 45.54-0.4 44.17-1.23 43.45-2.65 42.72-4.08 42.5-5.96 42.27-7.85 42.27-10L42.27-10 42.27-23.5 35-23.5 35-27.5 42.27-27.5 42.27-32.73 46.65-35.5 46.65-27.5 58.75-27.5 58.25-23.5 46.77-23.5ZM92.25-4.5L92.75 0 87.75 0 87.75-4.05 85.4-1.25Q84.97-0.93 84.31-0.63 83.65-0.33 82.9-0.09 82.15 0.15 81.37 0.29 80.59 0.43 79.9 0.43L79.9 0.43Q78.02 0.43 76.12-0.16 74.22-0.75 72.7-1.89 71.17-3.03 70.21-4.71 69.25-6.4 69.25-8.6L69.25-8.6Q69.25-10.93 70.23-12.61 71.22-14.3 72.82-15.4 74.42-16.5 76.47-17.03 78.52-17.55 80.62-17.55L80.62-17.55Q83-17.55 84.75-17.29 86.5-17.03 87.75-16.55L87.75-16.55 87.75-17.63Q87.75-19.1 87.38-20.28 87.02-21.45 86.25-22.26 85.47-23.08 84.26-23.5 83.05-23.93 81.37-23.93L81.37-23.93Q79.8-23.93 78.66-23.74 77.52-23.55 76.55-23.33L76.55-23.33Q75.97-23.2 75.45-23.05 74.92-22.9 74.42-22.75L74.42-22.75 72.62-26.1Q73.67-26.58 75.12-27L75.12-27Q76.32-27.35 77.86-27.64 79.4-27.93 81.62-27.93L81.62-27.93Q84.5-27.93 86.52-27.15 88.55-26.38 89.82-24.98 91.09-23.58 91.67-21.61 92.25-19.65 92.25-17.25L92.25-17.25 92.25-4.5ZM87.75-6.85L87.75-13.13 86.25-13.33Q85.9-13.35 85.32-13.4 84.75-13.45 84.07-13.48L84.07-13.48 82.75-13.53Q82.09-13.55 81.62-13.55L81.62-13.55Q80.22-13.55 78.87-13.3 77.52-13.05 76.46-12.48 75.4-11.9 74.73-10.96 74.07-10.03 74.07-8.63L74.07-8.63Q74.07-7.5 74.57-6.58 75.07-5.65 75.91-4.98 76.75-4.3 77.83-3.94 78.92-3.58 80.09-3.58L80.09-3.58Q82.42-3.58 84.27-4.46 86.12-5.35 87.75-6.85L87.75-6.85ZM107.27 0L102.77 0 102.77-35.5 102.27-40 107.27-40.5 107.27-17.25 117.02-27.5 122.74-27.5 113.24-17.25 108.79-15.68 113.24-14.18 125.52 0 119.62 0 107.27-13.93 107.27 0ZM153.27-7.5L153.27-27.5 157.77-28 157.77 0 153.27 0 153.27-4.5 151.74-1.83Q151.52-1.55 151.02-1.18 150.52-0.8 149.77-0.44 149.02-0.08 148.04 0.18 147.06 0.43 145.87 0.43L145.87 0.43Q142.84 0.43 140.8-0.51 138.77-1.45 137.54-3 136.31-4.55 135.79-6.58 135.27-8.6 135.27-10.75L135.27-10.75 135.27-27.5 139.77-28 139.77-10.75Q139.77-9.13 140.09-7.83 140.42-6.53 141.2-5.6 141.99-4.67 143.3-4.19 144.62-3.7 146.56-3.7L146.56-3.7Q148.02-3.7 149.14-4.11 150.27-4.53 151.1-5.11 151.94-5.7 152.48-6.35 153.02-7 153.27-7.5L153.27-7.5ZM211.24 0.43L211.24 0.43Q208.99 0.43 207.1-0.26 205.21-0.95 203.67-2.21 202.14-3.48 200.99-5.23 199.84-6.98 199.05-9.11 198.26-11.25 197.87-13.69 197.49-16.13 197.49-18.75L197.49-18.75Q197.49-21.38 197.86-23.81 198.24-26.25 199-28.39 199.76-30.53 200.9-32.27 202.04-34.02 203.56-35.29 205.09-36.55 207.01-37.24 208.94-37.93 211.24-37.93L211.24-37.93Q213.49-37.93 215.37-37.24 217.26-36.55 218.8-35.29 220.34-34.02 221.49-32.27 222.64-30.53 223.42-28.39 224.21-26.25 224.6-23.81 224.99-21.38 224.99-18.75L224.99-18.75Q224.99-16.13 224.61-13.69 224.24-11.25 223.47-9.11 222.71-6.98 221.57-5.23 220.44-3.48 218.91-2.21 217.39-0.95 215.46-0.26 213.54 0.43 211.24 0.43ZM219.79-17.98L219.79-17.98Q219.79-19.73 219.67-21.55 219.56-23.38 219.22-25.11 218.89-26.85 218.29-28.39 217.69-29.93 216.72-31.06 215.76-32.2 214.37-32.88 212.99-33.55 211.09-33.55L211.09-33.55Q209.29-33.55 207.96-32.95 206.64-32.35 205.71-31.31 204.79-30.28 204.19-28.89 203.59-27.5 203.26-25.95 202.94-24.4 202.81-22.78 202.69-21.15 202.69-19.63L202.69-19.63Q202.69-17.85 202.8-16 202.91-14.15 203.25-12.41 203.59-10.68 204.19-9.14 204.79-7.6 205.76-6.45 206.74-5.3 208.11-4.63 209.49-3.95 211.39-3.95L211.39-3.95Q213.16-3.95 214.47-4.56 215.79-5.18 216.72-6.24 217.66-7.3 218.26-8.69 218.86-10.08 219.2-11.64 219.54-13.2 219.66-14.83 219.79-16.45 219.79-17.98ZM250.83-27.5L255.21-28 245.93 0.5 240.78 0 231.86-27.5 236.43-28 242.41-9.53 243.73-3.73 244.98-9.53 250.83-27.5ZM283.11-5.9L285.83-3.23Q285.06-2.43 284.13-1.75 283.21-1.07 282.08-0.59 280.96-0.1 279.59 0.16 278.23 0.43 276.56 0.43L276.56 0.43Q273.23 0.43 270.81-0.75 268.38-1.93 266.81-3.9 265.23-5.88 264.48-8.43 263.73-10.98 263.73-13.75L263.73-13.75Q263.73-15.53 264.09-17.26 264.46-19 265.14-20.58 265.83-22.15 266.87-23.5 267.91-24.85 269.27-25.83 270.63-26.8 272.29-27.36 273.96-27.93 275.93-27.93L275.93-27.93Q278.63-27.93 280.81-27.05 282.98-26.18 284.5-24.6 286.03-23.03 286.86-20.81 287.68-18.6 287.68-15.95L287.68-15.95Q287.68-15.18 287.63-14.25 287.58-13.33 287.48-12.5L287.48-12.5 268.48-12.5Q268.48-10.58 269.08-8.94 269.68-7.3 270.72-6.11 271.75-4.93 273.17-4.25 274.58-3.58 276.23-3.58L276.23-3.58Q277.83-3.58 278.97-3.81 280.11-4.05 280.89-4.4 281.68-4.75 282.21-5.15 282.73-5.55 283.11-5.9L283.11-5.9ZM272.11-16.25L283.28-16.25 283.28-17.35Q283.28-18.78 282.72-19.98 282.16-21.18 281.19-22.06 280.23-22.95 278.97-23.45 277.71-23.95 276.31-23.95L276.31-23.95Q274.63-23.95 273.37-23.41 272.11-22.88 271.21-22.04 270.31-21.2 269.75-20.2 269.21-19.2 268.96-18.3L268.96-18.3 267.48-15.45 272.11-16.25ZM302.25-28L302.25-22.38 304.53-26.33Q305.23-26.85 306.13-27.18 307.03-27.5 307.98-27.66 308.93-27.83 309.89-27.88 310.85-27.93 311.73-27.93L311.73-27.93Q313.6-27.93 314.93-27.76 316.25-27.6 317.17-27.35 318.08-27.1 318.63-26.84 319.18-26.58 319.48-26.38L319.48-26.38 320.73-19.25 316.98-18.75 315.73-23.2Q315.53-23.28 315.1-23.35 314.68-23.43 314.13-23.5 313.58-23.58 312.97-23.63 312.35-23.68 311.8-23.68L311.8-23.68Q310.1-23.68 308.65-23.29 307.2-22.9 306-22.23 304.8-21.55 303.87-20.65 302.93-19.75 302.25-18.75L302.25-18.75 302.25 0 297.75 0 297.75-27.5 302.25-28ZM328.68-23.5L328.68-27.5 334.98-27.5 334.98-31.38Q334.98-33.5 335.83-35.18 336.68-36.85 338.13-38.01 339.58-39.18 341.53-39.8 343.48-40.43 345.68-40.43L345.68-40.43Q346.8-40.43 347.95-40.23 349.1-40.03 350.16-39.71 351.23-39.4 352.13-39 353.03-38.6 353.6-38.23L353.6-38.23 351.48-35.27Q351.18-35.45 350.56-35.65 349.95-35.85 349.24-36.02 348.53-36.2 347.78-36.31 347.03-36.43 346.48-36.43L346.48-36.43Q345.4-36.43 344.19-36.14 342.98-35.85 341.96-35.21 340.95-34.58 340.28-33.56 339.6-32.55 339.6-31.13L339.6-31.13 339.6-27.5 350.8-27.5 350.3-23.5 339.73-23.5 339.73 0 334.98 0 334.98-23.5 328.68-23.5ZM370.22-10L370.22-35.5 371.22-37 367.72-36 362.7-36 362.2-40 374.72-40 374.72-9.4Q374.72-7.75 374.97-6.64 375.22-5.53 375.65-4.84 376.07-4.15 376.67-3.86 377.27-3.58 377.97-3.58L377.97-3.58Q378.97-3.58 379.81-3.73 380.65-3.88 381.31-4.1 381.97-4.33 382.46-4.58 382.95-4.83 383.25-5L383.25-5 384.97-1.98Q384.77-1.8 384.15-1.4 383.52-1 382.56-0.6 381.6-0.2 380.31 0.11 379.02 0.43 377.47 0.43L377.47 0.43Q375.22 0.43 373.8-0.4 372.37-1.23 371.59-2.65 370.8-4.08 370.51-5.96 370.22-7.85 370.22-10L370.22-10ZM406.2 0.43L406.2 0.43Q403.42 0.43 401.11-0.66 398.8-1.75 397.12-3.66 395.45-5.58 394.51-8.18 393.57-10.78 393.57-13.83L393.57-13.83Q393.57-16.85 394.47-19.44 395.37-22.03 397.02-23.91 398.67-25.8 401.01-26.86 403.35-27.93 406.2-27.93L406.2-27.93Q408.97-27.93 411.25-26.86 413.52-25.8 415.16-23.91 416.8-22.03 417.7-19.44 418.6-16.85 418.6-13.83L418.6-13.83Q418.6-10.78 417.73-8.18 416.87-5.58 415.26-3.66 413.65-1.75 411.35-0.66 409.05 0.43 406.2 0.43ZM413.85-13.15L413.85-13.15Q413.85-15.18 413.42-17.13 413-19.07 412.07-20.61 411.15-22.15 409.67-23.1 408.2-24.05 406.1-24.05L406.1-24.05Q404.1-24.05 402.62-23.23 401.15-22.4 400.2-21.03 399.25-19.65 398.78-17.9 398.32-16.15 398.32-14.3L398.32-14.3Q398.32-12.28 398.78-10.33 399.25-8.38 400.21-6.85 401.17-5.33 402.68-4.39 404.2-3.45 406.3-3.45L406.3-3.45Q408.27-3.45 409.71-4.28 411.15-5.1 412.06-6.46 412.97-7.83 413.41-9.56 413.85-11.3 413.85-13.15ZM440.57-22.13L443.37-10 444.89-3.75 445.17-12 448.42-27.5 452.47-28 447.02 0 443.34 0 440.04-8.7 438.64-18.75 437.29-8.75 434.02 0 430.34 0 424.97-27.5 429.02-28 432.09-12 432.62-3.75 436.74-22.13 440.57-22.13Z" opacity="1" transform="matrix(1,0,0,1,0,0)" fill="#000000" class="wordmark-text-0" data-fill-palette-color="primary" id="text-0"></path></svg></g></svg></g></svg></g></svg></g></svg></g></svg></g></svg></g><defs></defs></svg><rect width="320" height="360" fill="none" stroke="none" visibility="hidden"></rect></g></svg></g></svg>